<svg width="115" height="38" viewBox="0 0 115 38" fill="none" xmlns="http://www.w3.org/2000/svg">
<path d="M41.6078 25.9565L46.5321 12.0717C46.5938 11.9056 46.7394 11.8232 46.904 11.8232H48.7876C48.9538 11.8232 49.1184 11.9056 49.1802 12.0717L54.1044 25.9565C54.1867 26.1638 54.0838 26.3078 53.8559 26.3078H52.0562C51.89 26.3078 51.7665 26.2461 51.7048 26.0593L50.8564 23.5347H44.8558L43.9869 26.0593C43.9251 26.2461 43.8207 26.3078 43.6355 26.3078H41.8564C41.6284 26.3078 41.5255 26.1622 41.6078 25.9565ZM50.1536 21.4659L47.8569 14.6993L45.5602 21.4659H50.1536Z" fill="#141414"/>
<path d="M56.3188 23.8246V17.9475H55.0145C54.8546 17.9475 54.7249 17.8177 54.7249 17.6578V16.4786C54.7249 16.3077 54.8641 16.1684 55.0351 16.1684H56.3188V15.4434C56.3188 14.3576 57.1988 13.4775 58.2847 13.4775C58.4445 13.4775 58.5743 13.6073 58.5743 13.7672V16.1668H60.2094C60.3803 16.1668 60.5196 16.3061 60.5196 16.477V17.6357C60.5196 17.8066 60.3803 17.9459 60.2094 17.9459H58.5743V23.5539C58.5743 24.2361 58.9051 24.5258 59.4845 24.5258C59.6507 24.5258 59.8976 24.5258 60.1255 24.5052C60.374 24.4641 60.4975 24.5669 60.4975 24.7743V25.8918C60.4975 26.3049 59.5873 26.43 58.9669 26.43C57.4568 26.43 56.3188 25.705 56.3188 23.823V23.8246Z" fill="#141414"/>
<path d="M62.8781 26.0184V13.4585C62.8781 12.3837 63.7487 11.5132 64.8234 11.5132C64.9833 11.5132 65.1131 11.643 65.1131 11.8028V17.7417C65.6924 16.7065 66.707 15.9214 68.2994 15.9214C70.452 15.9214 71.9826 17.4109 71.9826 20.0811V25.9994C71.9826 26.1703 71.8434 26.3096 71.6724 26.3096H70.0373C69.8774 26.3096 69.7477 26.1798 69.7477 26.0199V20.4958C69.7477 18.9019 68.961 17.9918 67.5333 17.9918C66.1055 17.9918 65.1131 18.9019 65.1131 20.4958V26.0199C65.1131 26.1798 64.9833 26.3096 64.8234 26.3096H63.1678C63.0079 26.3096 62.8781 26.1798 62.8781 26.0199V26.0184Z" fill="#141414"/>
<path d="M74.941 26.0184V13.4379C74.941 12.3758 75.802 11.5132 76.8657 11.5132C77.0367 11.5132 77.176 11.6525 77.176 11.8234V25.9978C77.176 26.1687 77.0367 26.308 76.8657 26.308H75.2306C75.0708 26.308 74.941 26.1782 74.941 26.0184Z" fill="#141414"/>
<path d="M79.6389 21.1971C79.6389 18.2182 81.7076 15.9199 84.791 15.9199C87.8744 15.9199 89.5918 18.2166 89.5918 20.7413C89.5918 21.6308 89.405 22.0661 88.6405 22.0661H81.8121C82.0812 23.6806 83.281 24.7554 85.288 24.7554C86.2805 24.7554 87.0877 24.5069 87.895 23.9687C88.0184 23.8864 88.1435 23.9069 88.2258 24.0304L88.8051 24.8171C88.9286 24.9833 88.8874 25.1067 88.7228 25.2729C87.8332 26.1419 86.529 26.555 85.1013 26.555C81.7899 26.555 79.6389 24.2172 79.6389 21.1955V21.1971ZM87.6053 20.4516C87.4819 18.7959 86.3849 17.8035 84.791 17.8035C83.1971 17.8035 82.0179 18.7754 81.7899 20.4516H87.6037H87.6053Z" fill="#141414"/>
<path d="M92.8193 23.8246V17.9475H91.515C91.3551 17.9475 91.2253 17.8177 91.2253 17.6578V16.4786C91.2253 16.3077 91.3646 16.1684 91.5356 16.1684H92.8193V15.4434C92.8193 14.3576 93.6993 13.4775 94.7852 13.4775C94.945 13.4775 95.0748 13.6073 95.0748 13.7672V16.1668H96.7099C96.8808 16.1668 97.0201 16.3061 97.0201 16.477V17.6357C97.0201 17.8066 96.8808 17.9459 96.7099 17.9459H95.0748V23.5539C95.0748 24.2361 95.4056 24.5258 95.9849 24.5258C96.1511 24.5258 96.3981 24.5258 96.626 24.5052C96.8745 24.4641 96.998 24.5669 96.998 24.7743V25.8918C96.998 26.3049 96.0878 26.43 95.4674 26.43C93.9573 26.43 92.8193 25.705 92.8193 23.823V23.8246Z" fill="#141414"/>
<path d="M99.2123 12.6923C99.2123 11.9895 99.771 11.4102 100.517 11.4102C101.262 11.4102 101.865 12.0591 101.794 12.8189C101.724 13.5581 101.031 14.0978 100.297 13.9791C99.665 13.8778 99.2123 13.3444 99.2123 12.6923ZM99.3785 18.1135C99.3785 17.0388 100.249 16.1682 101.324 16.1682C101.495 16.1682 101.634 16.3075 101.634 16.4784V25.9961C101.634 26.167 101.495 26.3063 101.324 26.3063H99.6681C99.5083 26.3063 99.3785 26.1765 99.3785 26.0166V18.1119V18.1135Z" fill="#141414"/>
<path d="M104.095 21.2383C104.095 18.2372 106.082 15.9199 108.978 15.9199C110.572 15.9199 111.731 16.5816 112.454 17.6785V13.457C112.454 12.3823 113.325 11.5117 114.4 11.5117C114.56 11.5117 114.689 11.6415 114.689 11.8014V25.9963C114.689 26.1673 114.55 26.3066 114.379 26.3066H112.89C112.703 26.3066 112.6 26.1831 112.6 25.9963L112.559 24.6509C111.834 25.8301 110.634 26.5551 108.978 26.5551C106.082 26.5551 104.095 24.2584 104.095 21.2367V21.2383ZM109.414 24.5069C111.213 24.5069 112.477 23.2026 112.477 21.2589C112.477 19.3151 111.215 17.9681 109.414 17.9681C107.612 17.9681 106.269 19.293 106.269 21.2367C106.269 23.1804 107.593 24.5053 109.414 24.5053V24.5069Z" fill="#141414"/>
<path d="M14.4399 8.37918L26.7845 34.5863C26.8716 34.7715 27.033 34.9124 27.2293 34.9741L36.8277 37.9641C37.445 38.1556 37.9895 37.5146 37.7014 36.9369L19.4259 0.404812C19.1552 -0.134937 18.386 -0.134937 18.1153 0.404812L14.4463 7.73971C14.345 7.94073 14.3434 8.17658 14.4383 8.37918H14.4399Z" fill="#141414"/>
<path d="M23.2548 8.09445L10.7598 34.7369C10.6728 34.9237 10.5113 35.0645 10.3151 35.1263L1.28019 37.9532C0.452361 38.2128 -0.282075 37.347 0.107305 36.5667L18.1185 0.408163C18.3892 -0.134752 19.16 -0.134752 19.4291 0.408163L23.2564 8.09603L23.2548 8.09445Z" fill="#1E1E1E"/>
</svg>
