<?xml version="1.0" encoding="UTF-8"?><svg id="Calque_2" xmlns="http://www.w3.org/2000/svg" viewBox="0 0 2000 2000"><defs><style>.cls-1{fill:#fff;}.cls-2{fill:#e2e2e2;}.cls-3{fill:#141414;}</style></defs><g id="Calque_1-2"><rect class="cls-3" width="2000" height="2000"/><g><path class="cls-2" d="m882.88,720.51l324.88,689.69c2.3,4.89,6.55,8.59,11.71,10.19l252.61,78.68c16.23,5.06,30.59-11.84,22.98-27.04l-480.93-961.39c-7.11-14.21-27.39-14.21-34.5,0l-96.55,193.01c-2.65,5.29-2.72,11.5-.2,16.85Z"/><path class="cls-1" d="m1114.84,713.02l-328.84,701.13c-2.3,4.91-6.55,8.62-11.71,10.24l-237.75,74.38c-21.81,6.82-41.1-15.97-30.88-36.49l473.97-951.57c7.11-14.27,27.39-14.27,34.5,0l100.72,202.3Z"/></g></g></svg>