<svg width="32" height="32" viewBox="0 0 32 32" fill="none" xmlns="http://www.w3.org/2000/svg">
<path d="M22.667 12.0001C22.667 17.1601 18.187 21.3334 12.667 21.3334L11.427 22.8267L10.6937 23.7067C10.067 24.4534 8.86699 24.2934 8.45366 23.4001L6.66699 19.4667C4.24033 17.7601 2.66699 15.0534 2.66699 12.0001C2.66699 6.84008 7.14699 2.66675 12.667 2.66675C16.6937 2.66675 20.1737 4.89341 21.7337 8.09342C22.3337 9.28008 22.667 10.6001 22.667 12.0001Z" stroke="#E63D31" stroke-width="1.5" stroke-linecap="round" stroke-linejoin="round"/>
<path d="M9.33301 11.9999H15.9997M29.333 17.1466C29.333 20.1999 27.7597 22.9066 25.333 24.6133L23.5463 28.5466C23.133 29.4399 21.933 29.6133 21.3063 28.8533L19.333 26.4799C16.1063 26.4799 13.2263 25.0533 11.4263 22.8266L12.6663 21.3333C18.1863 21.3333 22.6663 17.1599 22.6663 11.9999C22.6663 10.5999 22.333 9.27993 21.733 8.09326C26.093 9.09326 29.333 12.7733 29.333 17.1466Z" stroke="#E63D31" stroke-width="1.5" stroke-linecap="round" stroke-linejoin="round"/>
</svg>
