<svg width="32" height="32" viewBox="0 0 32 32" fill="none" xmlns="http://www.w3.org/2000/svg">
<path d="M27.8801 14.8258C27.8801 21.3458 23.1468 27.4524 16.6801 29.2391C16.2401 29.3591 15.7601 29.3591 15.3201 29.2391C8.85345 27.4524 4.12012 21.3458 4.12012 14.8258V8.97245C4.12012 7.87911 4.94678 6.63911 5.97345 6.22578L13.4001 3.18578C15.0668 2.50578 16.9468 2.50578 18.6134 3.18578L26.0401 6.22578C27.0534 6.63911 27.8934 7.87911 27.8934 8.97245L27.8801 14.8258Z" stroke="#E63D31" stroke-width="1.5" stroke-linecap="round" stroke-linejoin="round"/>
<path d="M16.0002 16.6673C16.7074 16.6673 17.3857 16.3864 17.8858 15.8863C18.3859 15.3862 18.6668 14.7079 18.6668 14.0007C18.6668 13.2934 18.3859 12.6151 17.8858 12.115C17.3857 11.6149 16.7074 11.334 16.0002 11.334C15.2929 11.334 14.6146 11.6149 14.1145 12.115C13.6144 12.6151 13.3335 13.2934 13.3335 14.0007C13.3335 14.7079 13.6144 15.3862 14.1145 15.8863C14.6146 16.3864 15.2929 16.6673 16.0002 16.6673ZM16.0002 16.6673V20.6673" stroke="#E63D31" stroke-width="1.5" stroke-miterlimit="10" stroke-linecap="round" stroke-linejoin="round"/>
</svg>
