<svg width="88" height="30" viewBox="0 0 88 30" fill="none" xmlns="http://www.w3.org/2000/svg">
<path d="M31.9249 19.9165L35.7032 9.26294C35.7506 9.13542 35.8623 9.07227 35.9886 9.07227H37.4339C37.5614 9.07227 37.6877 9.13542 37.7351 9.26294L41.5134 19.9165C41.5765 20.0756 41.4976 20.1862 41.3227 20.1862H39.9418C39.8143 20.1862 39.7196 20.1388 39.6722 19.9955L39.0212 18.0584H34.4171L33.7503 19.9955C33.7029 20.1388 33.6228 20.1862 33.4807 20.1862H32.1156C31.9407 20.1862 31.8618 20.0744 31.9249 19.9165ZM38.482 16.471L36.7198 11.279L34.9575 16.471H38.482Z" fill="white"/>
<path d="M43.2123 18.281V13.7715H42.2115C42.0888 13.7715 41.9893 13.672 41.9893 13.5493V12.6445C41.9893 12.5133 42.0961 12.4064 42.2273 12.4064H43.2123V11.8502C43.2123 11.0171 43.8875 10.3418 44.7207 10.3418C44.8433 10.3418 44.9429 10.4414 44.9429 10.5641V12.4052H46.1975C46.3287 12.4052 46.4355 12.5121 46.4355 12.6433V13.5323C46.4355 13.6635 46.3287 13.7703 46.1975 13.7703H44.9429V18.0733C44.9429 18.5968 45.1968 18.819 45.6413 18.819C45.7688 18.819 45.9582 18.819 46.1331 18.8032C46.3238 18.7716 46.4185 18.8506 46.4185 19.0097V19.8671C46.4185 20.1841 45.7202 20.2801 45.2441 20.2801C44.0855 20.2801 43.2123 19.7238 43.2123 18.2798V18.281Z" fill="white"/>
<path d="M48.2451 19.9656V10.3286C48.2451 9.50391 48.9131 8.83594 49.7377 8.83594C49.8604 8.83594 49.96 8.93552 49.96 9.05819V13.615C50.4045 12.8207 51.183 12.2183 52.4048 12.2183C54.0565 12.2183 55.2309 13.3612 55.2309 15.41V19.951C55.2309 20.0822 55.1241 20.1891 54.9929 20.1891H53.7383C53.6156 20.1891 53.5161 20.0895 53.5161 19.9668V15.7282C53.5161 14.5052 52.9124 13.8069 51.817 13.8069C50.7215 13.8069 49.96 14.5052 49.96 15.7282V19.9668C49.96 20.0895 49.8604 20.1891 49.7377 20.1891H48.4674C48.3447 20.1891 48.2451 20.0895 48.2451 19.9668V19.9656Z" fill="white"/>
<path d="M57.501 19.9656V10.3128C57.501 9.49784 58.1617 8.83594 58.9778 8.83594C59.109 8.83594 59.2159 8.94281 59.2159 9.07398V19.9498C59.2159 20.081 59.109 20.1879 58.9778 20.1879H57.7232C57.6006 20.1879 57.501 20.0883 57.501 19.9656Z" fill="white"/>
<path d="M61.1055 16.2659C61.1055 13.9803 62.6928 12.2168 65.0587 12.2168C67.4245 12.2168 68.7422 13.979 68.7422 15.9162C68.7422 16.5987 68.5989 16.9327 68.0123 16.9327H62.773C62.9794 18.1715 63.9 18.9961 65.44 18.9961C66.2015 18.9961 66.8209 18.8055 67.4403 18.3925C67.535 18.3294 67.631 18.3452 67.6941 18.4399L68.1386 19.0435C68.2334 19.171 68.2018 19.2658 68.0755 19.3933C67.3929 20.06 66.3922 20.377 65.2967 20.377C62.756 20.377 61.1055 18.5832 61.1055 16.2647V16.2659ZM67.2181 15.6939C67.1233 14.4235 66.2817 13.6621 65.0587 13.6621C63.8357 13.6621 62.9309 14.4078 62.756 15.6939H67.2168H67.2181Z" fill="white"/>
<path d="M71.2191 18.281V13.7715H70.2183C70.0957 13.7715 69.9961 13.672 69.9961 13.5493V12.6445C69.9961 12.5133 70.103 12.4064 70.2341 12.4064H71.2191V11.8502C71.2191 11.0171 71.8944 10.3418 72.7275 10.3418C72.8502 10.3418 72.9498 10.4414 72.9498 10.5641V12.4052H74.2043C74.3355 12.4052 74.4424 12.5121 74.4424 12.6433V13.5323C74.4424 13.6635 74.3355 13.7703 74.2043 13.7703H72.9498V18.0733C72.9498 18.5968 73.2036 18.819 73.6481 18.819C73.7756 18.819 73.9651 18.819 74.14 18.8032C74.3306 18.7716 74.4254 18.8506 74.4254 19.0097V19.8671C74.4254 20.1841 73.727 20.2801 73.2509 20.2801C72.0923 20.2801 71.2191 19.7238 71.2191 18.2798V18.281Z" fill="white"/>
<path d="M76.124 9.73961C76.124 9.20037 76.5527 8.75586 77.1248 8.75586C77.6968 8.75586 78.1595 9.25381 78.1049 9.83677C78.0514 10.4039 77.5195 10.8181 76.956 10.727C76.4714 10.6493 76.124 10.24 76.124 9.73961ZM76.2516 13.8993C76.2516 13.0746 76.9195 12.4066 77.7442 12.4066C77.8753 12.4066 77.9822 12.5135 77.9822 12.6447V19.9475C77.9822 20.0786 77.8753 20.1855 77.7442 20.1855H76.4738C76.3511 20.1855 76.2516 20.0859 76.2516 19.9633V13.8981V13.8993Z" fill="white"/>
<path d="M79.8711 16.2971C79.8711 13.9944 81.3953 12.2164 83.6178 12.2164C84.8408 12.2164 85.7298 12.724 86.2849 13.5657V10.3266C86.2849 9.50196 86.9528 8.83398 87.7775 8.83398C87.9002 8.83398 87.9998 8.93357 87.9998 9.05624V19.9479C87.9998 20.079 87.8929 20.1859 87.7617 20.1859H86.6189C86.4756 20.1859 86.3966 20.0912 86.3966 19.9479L86.365 18.9156C85.8088 19.8204 84.8882 20.3766 83.6178 20.3766C81.3953 20.3766 79.8711 18.6144 79.8711 16.2959V16.2971ZM83.9518 18.805C85.3327 18.805 86.3019 17.8043 86.3019 16.3129C86.3019 14.8215 85.3339 13.7879 83.9518 13.7879C82.5697 13.7879 81.5386 14.8045 81.5386 16.2959C81.5386 17.7873 82.5551 18.8038 83.9518 18.8038V18.805Z" fill="white"/>
<path d="M11.0801 6.42926L20.552 26.5377C20.6188 26.6798 20.7426 26.7879 20.8932 26.8353L28.258 29.1295C28.7316 29.2764 29.1494 28.7846 28.9284 28.3413L14.9058 0.310608C14.6981 -0.103536 14.1078 -0.103536 13.9001 0.310608L11.0849 5.9386C11.0072 6.09284 11.006 6.27381 11.0789 6.42926H11.0801Z" fill="#E2E2E2"/>
<path d="M17.8432 6.212L8.25592 26.6545C8.18912 26.7978 8.06524 26.9059 7.91464 26.9532L0.982276 29.1223C0.347092 29.3215 -0.216433 28.6572 0.0823341 28.0584L13.9021 0.314383C14.1098 -0.10219 14.7013 -0.10219 14.9077 0.314383L17.8444 6.21321L17.8432 6.212Z" fill="white"/>
</svg>
